<?xml version="1.0" standalone="no"?>
<!DOCTYPE svg PUBLIC "-//W3C//DTD SVG 20010904//EN"
 "http://www.w3.org/TR/2001/REC-SVG-20010904/DTD/svg10.dtd">
<svg version="1.0" xmlns="http://www.w3.org/2000/svg"
 width="500.000000pt" height="500.000000pt" viewBox="0 0 500.000000 500.000000"
 preserveAspectRatio="xMidYMid meet">

<g transform="translate(0.000000,500.000000) scale(0.100000,-0.100000)"
fill="#000000" stroke="none">
<path d="M2290 4339 c-469 -54 -923 -301 -1220 -664 -403 -493 -527 -1160
-326 -1759 136 -406 417 -764 776 -987 598 -371 1361 -372 1958 -1 418 260
732 707 832 1184 225 1079 -520 2108 -1612 2227 -112 13 -299 12 -408 0z m458
-125 c456 -72 840 -295 1117 -649 410 -523 481 -1234 185 -1836 -112 -227
-281 -434 -485 -594 -309 -241 -669 -365 -1065 -365 -396 0 -756 123 -1065
365 -546 427 -782 1126 -610 1805 106 417 380 789 764 1034 171 110 397 194
636 236 132 24 390 26 523 4z"/>
<path d="M2280 4186 c-208 -30 -406 -96 -595 -198 -259 -140 -505 -389 -663
-668 -48 -86 -118 -265 -147 -376 -123 -480 -30 -995 253 -1394 141 -199 387
-414 599 -523 558 -286 1231 -240 1737 119 581 411 840 1123 657 1807 -170
637 -679 1100 -1341 1223 -118 22 -381 27 -500 10z m327 -251 c17 -66 32 -123
33 -127 0 -5 -14 -8 -30 -8 -26 0 -31 5 -36 30 -5 25 -11 30 -34 30 -23 0 -30
-5 -35 -30 -5 -25 -11 -30 -36 -30 -16 0 -29 3 -29 6 0 9 71 237 77 247 3 5
17 7 31 5 24 -3 28 -11 59 -123z m-277 18 c15 -114 12 -108 46 -108 22 0 30
-5 32 -22 3 -18 -3 -23 -30 -27 -89 -15 -82 -20 -95 74 -6 47 -15 104 -18 128
-6 41 -6 42 23 42 l30 0 12 -87z m474 -2 l8 -84 18 29 c72 117 70 115 93 108
12 -3 23 -7 24 -8 5 -4 -34 -247 -40 -246 -4 0 -16 0 -28 0 -20 0 -21 4 -14
63 l6 62 -32 -53 c-40 -68 -63 -67 -67 3 -4 70 -17 76 -33 16 -11 -42 -17 -51
-35 -51 -13 0 -26 5 -29 10 -3 6 11 62 32 126 36 109 39 115 63 112 24 -3 25
-7 34 -87z m-623 35 c7 -25 6 -27 -13 -23 -23 6 -58 -8 -58 -23 0 -6 25 -21
55 -35 38 -16 58 -32 65 -50 23 -60 -19 -109 -87 -103 -32 3 -38 7 -41 28 -3
23 0 25 35 25 31 0 38 4 38 20 0 15 -11 24 -43 34 -51 16 -75 47 -70 93 2 26
10 37 38 51 47 23 72 19 81 -17z m-166 -140 c45 -109 53 -136 36 -136 -5 0
-16 -2 -24 -5 -10 -4 -27 25 -62 110 -26 64 -46 117 -44 119 9 8 44 24 46 22
2 -1 23 -51 48 -110z m1205 34 c23 -15 -74 -201 -112 -214 -38 -13 -83 16 -68
44 8 14 17 19 33 15 19 -5 27 4 64 80 42 84 54 94 83 75z m187 -126 c1 -5 -2
-16 -7 -24 -8 -13 -13 -12 -40 4 -30 17 -32 17 -45 -1 -12 -16 -11 -20 11 -38
22 -18 23 -22 11 -39 -13 -18 -15 -18 -40 -2 -25 17 -26 17 -38 -5 -10 -20 -8
-25 15 -44 23 -19 25 -23 12 -40 -13 -18 -15 -18 -65 14 -28 18 -51 35 -51 38
0 2 32 51 71 109 l71 104 46 -34 c26 -19 48 -38 49 -42z m-1656 -24 c28 -44
54 -80 58 -80 4 0 16 7 28 15 20 14 23 14 33 -4 5 -11 10 -22 10 -25 0 -8 -77
-56 -89 -56 -5 0 -40 46 -76 102 -62 95 -66 103 -49 115 10 7 22 13 26 13 5 0
31 -36 59 -80z m-107 -76 c57 -65 66 -80 66 -114 0 -30 -6 -43 -31 -64 -48
-40 -72 -34 -146 37 -82 78 -90 93 -67 118 16 18 19 16 82 -52 47 -50 71 -69
86 -67 38 5 28 35 -38 109 l-65 74 22 17 c12 10 23 18 23 18 1 0 31 -34 68
-76z m1877 20 c11 -13 7 -26 -21 -82 -19 -37 -36 -71 -38 -75 -2 -4 30 9 72
30 71 35 77 36 93 21 19 -19 26 -8 -81 -136 l-69 -83 -20 20 -21 20 44 52 44
52 -62 -33 c-83 -44 -97 -33 -58 47 29 60 26 61 -37 4 l-27 -25 -21 21 -21 20
97 82 c53 44 100 81 104 81 5 0 14 -7 22 -16z m-839 -78 c205 -37 380 -129
534 -281 177 -174 287 -407 301 -637 6 -94 5 -98 -14 -98 -18 0 -21 9 -28 82
-33 382 -266 696 -623 840 -108 43 -209 61 -352 61 -201 0 -354 -42 -516 -142
-261 -161 -443 -455 -461 -748 -5 -84 -8 -93 -26 -93 -19 0 -20 5 -14 108 19
386 319 753 721 882 121 39 338 51 478 26z m-1245 -96 c18 -11 35 -31 39 -44
5 -19 18 -29 61 -43 l55 -19 -19 -22 c-17 -22 -19 -22 -62 -7 -64 22 -70 18
-27 -18 35 -30 38 -35 27 -55 -6 -12 -14 -22 -17 -22 -3 0 -50 35 -104 77
-104 81 -104 81 -63 129 20 22 52 43 68 44 6 0 25 -9 42 -20z m2312 -102 l26
-47 -21 -28 c-12 -16 -33 -29 -47 -31 -19 -2 -27 -9 -27 -22 0 -23 -46 -60
-74 -60 -11 0 -28 6 -36 13 -25 20 -72 88 -66 94 23 24 194 132 205 130 8 -1
26 -23 40 -49z m-1069 -34 c29 -9 69 -24 89 -35 20 -10 39 -19 44 -19 20 0
142 -97 198 -158 60 -65 128 -189 144 -260 3 -17 16 -34 30 -40 56 -25 69
-106 48 -280 -8 -61 -20 -108 -37 -140 -13 -26 -29 -63 -35 -82 -6 -20 -28
-56 -49 -81 -20 -25 -48 -61 -61 -80 -33 -48 -152 -144 -223 -180 -33 -17 -83
-33 -111 -36 -29 -3 -64 -12 -79 -19 -32 -17 -94 -18 -104 -3 -4 8 -9 8 -17 0
-6 -6 -24 -11 -40 -11 -19 0 -39 -11 -61 -35 -55 -58 -117 -39 -131 38 -6 32
-12 36 -52 47 -25 6 -64 20 -87 32 -60 31 -204 154 -224 193 -9 18 -30 49 -46
69 -26 33 -47 81 -90 206 -38 111 -45 258 -16 322 7 15 25 32 40 38 19 8 31
23 40 53 29 99 103 218 183 298 68 68 210 146 305 168 66 16 283 13 342 -5z
m-1359 -60 c87 -46 123 -86 115 -128 -9 -45 -43 -76 -84 -76 -42 0 -205 86
-196 103 21 37 25 36 111 -9 78 -41 88 -44 102 -29 22 22 6 44 -60 79 -97 51
-101 54 -89 76 14 27 21 26 101 -16z m2546 -109 c24 -48 25 -57 13 -65 -25
-16 -37 -11 -50 19 -11 27 -14 29 -35 19 -23 -10 -23 -13 -10 -38 13 -25 13
-28 -10 -38 -21 -10 -24 -8 -35 18 -11 26 -15 28 -34 18 -11 -6 -22 -12 -24
-13 -2 -2 4 -17 12 -34 15 -29 15 -31 -4 -41 -11 -6 -24 -9 -28 -6 -12 7 -56
105 -51 111 7 7 212 104 222 104 4 1 19 -24 34 -54z m-2615 -136 c60 -19 108
-39 108 -46 0 -23 -29 -40 -89 -53 -34 -7 -61 -16 -61 -20 0 -4 24 -14 53 -22
42 -12 51 -19 49 -34 -2 -10 -7 -23 -12 -27 -4 -5 -60 8 -124 28 -105 33 -117
39 -114 59 3 18 17 24 88 42 l85 20 -67 19 c-39 10 -68 23 -68 31 0 26 13 45
29 41 9 -2 64 -20 123 -38z m2686 -38 c18 -57 15 -79 -14 -108 -22 -22 -32
-25 -70 -20 -37 4 -50 0 -84 -25 -45 -33 -44 -33 -54 -1 -6 18 0 27 33 50 41
29 55 51 24 38 -10 -4 -32 -9 -49 -12 -26 -4 -32 -2 -37 18 -3 13 -5 25 -3 27
5 5 217 70 232 71 6 1 16 -16 22 -38z m-2833 -669 c0 -48 4 -100 9 -117 l9
-30 7 25 7 25 10 -25 c6 -14 36 -56 67 -93 40 -49 56 -77 56 -98 l0 -30 -39
22 c-22 12 -64 42 -93 67 -49 42 -50 43 -18 8 19 -21 63 -58 97 -83 69 -51 92
-90 75 -126 -10 -22 -11 -21 -11 5 -1 28 -41 68 -70 68 -21 0 -117 45 -125 59
-5 7 -1 9 11 4 10 -3 5 4 -11 17 -29 24 -86 106 -86 124 0 5 9 1 19 -8 19 -17
19 -17 4 26 -17 51 -11 108 18 164 16 30 57 84 63 84 1 0 1 -39 1 -88z m2849
8 c30 -55 37 -131 16 -185 -11 -29 -11 -29 9 -10 12 10 21 14 21 8 0 -17 -50
-86 -83 -116 -19 -17 -25 -26 -14 -23 12 4 16 2 11 -5 -8 -14 -104 -59 -125
-59 -29 0 -69 -40 -70 -68 0 -26 -1 -26 -11 -5 -19 38 -1 69 69 121 38 28 84
68 103 89 l35 38 -35 -31 c-19 -17 -60 -48 -90 -69 -46 -31 -56 -34 -58 -20
-7 33 9 66 63 126 30 34 55 68 55 75 0 8 5 14 10 14 6 0 10 -8 10 -17 1 -16 2
-15 12 2 7 11 12 62 13 117 0 88 1 95 16 82 9 -8 28 -37 43 -64z m-2320 -114
c16 -25 21 -53 30 -157 7 -72 13 -87 76 -184 58 -90 76 -108 138 -137 77 -35
66 -5 -36 98 -68 69 -84 110 -58 149 12 19 25 25 51 25 31 0 48 -12 129 -87
59 -56 123 -105 177 -135 118 -66 162 -107 201 -185 29 -60 32 -75 36 -184 l4
-119 -144 0 -144 0 -12 33 c-17 46 -75 99 -157 142 -144 76 -186 113 -270 245
-43 67 -85 140 -93 163 -9 26 -17 92 -20 174 -4 112 -2 137 12 158 21 32 59
33 80 1z m1812 -1 c14 -22 16 -46 12 -158 -3 -80 -11 -149 -20 -174 -9 -23
-51 -97 -94 -164 -69 -105 -88 -128 -149 -171 -38 -27 -97 -62 -131 -78 -66
-32 -139 -102 -150 -144 l-6 -26 -145 0 -145 0 4 119 c4 109 7 124 36 184 39
78 83 119 201 185 54 30 118 79 177 135 81 75 98 87 129 87 75 0 83 -96 12
-155 -37 -31 -107 -113 -107 -125 0 -13 59 7 97 32 18 13 61 65 94 116 60 93
61 95 74 202 8 64 21 119 31 135 21 33 58 33 80 0z m-1532 -878 c17 -12 17
-16 2 -50 -18 -43 -9 -47 24 -12 24 25 54 32 79 16 10 -7 1 -18 -38 -47 l-52
-39 6 -72 c3 -40 4 -73 1 -73 -3 0 -16 5 -30 11 -22 10 -25 19 -28 68 l-3 56
-19 -43 c-13 -30 -23 -41 -33 -38 -8 3 -19 6 -24 6 -5 0 -9 5 -9 11 0 16 93
219 100 219 4 0 14 -6 24 -13z m1250 -96 l55 -108 -25 -11 c-23 -11 -26 -9
-78 97 -54 108 -55 109 -33 119 12 6 23 11 24 11 2 1 27 -48 57 -108z m-125
40 c9 -16 6 -20 -25 -25 -50 -10 -42 -36 16 -53 54 -16 68 -29 76 -70 5 -26 2
-36 -21 -57 -45 -42 -105 -33 -105 15 0 5 16 9 36 9 31 0 35 3 32 21 -2 16
-15 25 -48 35 -51 15 -70 36 -70 76 0 57 85 95 109 49z m-866 -41 c75 -59 20
-230 -74 -230 -75 0 -115 68 -89 153 26 86 104 123 163 77z m726 -107 l60
-108 -27 -7 c-15 -4 -28 -4 -30 1 -17 49 -72 49 -72 0 0 -16 -3 -29 -7 -29 -5
0 -18 -3 -30 -6 l-22 -6 6 123 c3 72 11 127 17 131 30 20 46 4 105 -99z m-531
50 c41 -46 11 -119 -52 -125 -28 -3 -31 -7 -36 -43 -4 -36 -8 -40 -30 -37 -14
2 -26 5 -27 5 -1 1 6 55 15 121 l15 118 46 -6 c32 -4 53 -14 69 -33z m316 6
c20 -15 26 -29 26 -58 0 -20 -5 -42 -11 -48 -7 -7 -3 -25 15 -62 l26 -51 -29
0 c-26 0 -33 6 -50 45 -11 25 -23 45 -26 45 -3 0 -3 -23 1 -51 l7 -51 -29 4
c-28 3 -29 5 -36 78 -4 41 -9 94 -12 117 -6 45 -9 43 75 51 9 1 28 -7 43 -19z
m-144 -14 c0 -22 -4 -25 -35 -25 -31 0 -35 -3 -35 -25 0 -21 5 -25 30 -25 23
0 30 -4 30 -20 0 -16 -7 -20 -30 -20 -25 0 -30 -4 -30 -25 0 -21 5 -25 30 -25
25 0 30 -4 30 -25 0 -24 -3 -25 -60 -25 l-60 0 0 89 c0 49 3 103 6 120 6 30 7
31 65 31 56 0 59 -1 59 -25z"/>
<path d="M2537 3953 c-11 -10 -8 -43 3 -43 6 0 10 11 10 25 0 26 -2 29 -13 18z"/>
<path d="M1374 3449 c-4 -7 4 -20 17 -30 21 -15 25 -16 32 -3 16 29 -32 60
-49 33z"/>
<path d="M3674 3366 c-14 -11 -16 -18 -8 -26 15 -15 44 -2 44 21 0 23 -9 24
-36 5z"/>
<path d="M3592 3312 c-18 -14 -20 -20 -10 -30 25 -25 65 -1 52 32 -8 20 -13
20 -42 -2z"/>
<path d="M2325 3325 c-36 -11 -17 -13 175 -13 191 0 211 1 180 13 -47 18 -300
18 -355 0z"/>
<path d="M2190 3270 l-35 -19 338 -1 c185 0 337 2 337 5 0 2 -13 11 -30 20
-24 12 -76 15 -302 15 -250 -1 -276 -2 -308 -20z"/>
<path d="M2079 3190 l-44 -39 463 -1 c325 0 461 3 457 11 -4 6 -25 24 -47 40
l-41 29 -372 0 -372 0 -44 -40z"/>
<path d="M1986 3090 c-20 -22 -36 -45 -36 -50 0 -7 193 -10 555 -10 305 0 555
2 555 5 0 3 -19 26 -41 50 l-42 45 -477 0 -478 0 -36 -40z"/>
<path d="M1921 2977 c-14 -18 -41 -83 -41 -100 0 -9 16 -17 42 -21 23 -4 56
-16 74 -27 l32 -19 60 59 c33 32 88 72 122 90 l63 31 -170 0 c-130 0 -173 -3
-182 -13z"/>
<path d="M2766 2961 c33 -16 90 -56 125 -89 l64 -60 35 18 c19 10 57 22 83 25
48 7 48 7 41 38 -4 18 -14 47 -22 64 l-16 33 -185 0 -186 0 61 -29z"/>
<path d="M2320 2946 c0 -2 8 -10 18 -17 15 -13 16 -12 3 4 -13 16 -21 21 -21
13z"/>
<path d="M2130 2868 c-25 -22 -36 -36 -25 -30 19 10 84 72 74 72 -2 -1 -24
-19 -49 -42z"/>
<path d="M2775 2890 c10 -11 20 -20 23 -20 3 0 -3 9 -13 20 -10 11 -20 20 -23
20 -3 0 3 -9 13 -20z"/>
<path d="M2472 2855 c0 -16 2 -22 5 -12 2 9 2 23 0 30 -3 6 -5 -1 -5 -18z"/>
<path d="M2855 2860 c10 -11 20 -20 23 -20 3 0 -3 9 -13 20 -10 11 -20 20 -23
20 -3 0 3 -9 13 -20z"/>
<path d="M2804 2848 c-5 -7 -3 -8 5 -3 8 4 27 -6 49 -26 l37 -34 -34 38 c-37
40 -46 44 -57 25z"/>
<path d="M2773 2835 c0 -8 4 -12 9 -9 5 3 6 10 3 15 -9 13 -12 11 -12 -6z"/>
<path d="M1830 2817 c-30 -15 -53 -92 -43 -150 5 -34 8 -38 27 -32 12 4 48 9
81 12 54 4 66 2 128 -30 37 -20 117 -72 178 -117 248 -184 325 -185 564 -13
166 120 251 163 320 163 30 0 66 -5 80 -12 22 -10 28 -9 36 3 13 22 11 105 -5
143 -12 28 -21 35 -54 41 -22 3 -58 2 -80 -4 -51 -14 -158 -85 -197 -131 -70
-83 -215 -221 -225 -215 -6 4 -9 1 -8 -6 4 -16 -79 -67 -119 -72 -27 -4 -33
-1 -36 16 -4 21 -4 21 -6 -1 -1 -26 -13 -25 -81 6 -35 17 -243 220 -281 277
-26 37 -132 112 -179 125 -46 13 -70 12 -100 -3z"/>
<path d="M2094 2798 l-19 -23 23 19 c21 18 27 26 19 26 -2 0 -12 -10 -23 -22z"/>
<path d="M2290 2769 c-7 -11 -10 -23 -7 -25 2 -2 9 7 15 21 14 30 7 33 -8 4z"/>
<path d="M2608 2783 c7 -3 16 -2 19 1 4 3 -2 6 -13 5 -11 0 -14 -3 -6 -6z"/>
<path d="M2433 2773 c9 -2 25 -2 35 0 9 3 1 5 -18 5 -19 0 -27 -2 -17 -5z"/>
<path d="M2528 2773 c6 -2 18 -2 25 0 6 3 1 5 -13 5 -14 0 -19 -2 -12 -5z"/>
<path d="M2070 2766 c0 -2 8 -10 18 -17 15 -13 16 -12 3 4 -13 16 -21 21 -21
13z"/>
<path d="M2896 2753 c-6 -14 -5 -15 5 -6 7 7 10 15 7 18 -3 3 -9 -2 -12 -12z"/>
<path d="M2472 2720 c0 -19 2 -27 5 -17 2 9 2 25 0 35 -3 9 -5 1 -5 -18z"/>
<path d="M2843 2703 c0 -8 6 -9 19 -2 10 5 18 11 18 12 0 2 -8 3 -18 3 -10 0
-19 -6 -19 -13z"/>
<path d="M2260 2671 c0 -10 19 -25 25 -20 1 2 -3 10 -11 17 -8 7 -14 8 -14 3z"/>
<path d="M1850 2607 c-30 -10 -36 -17 -38 -46 -2 -19 4 -54 13 -78 13 -35 21
-43 34 -37 113 48 179 38 371 -55 232 -114 294 -114 528 0 68 33 153 67 188
76 59 15 69 14 126 -1 35 -9 70 -17 78 -19 18 -2 39 53 39 105 1 33 -2 37 -35
48 -54 18 -142 8 -205 -23 -30 -14 -106 -61 -169 -103 -165 -110 -208 -129
-300 -129 -68 0 -81 3 -143 38 -37 20 -107 66 -155 101 -154 113 -255 151
-332 123z"/>
<path d="M2398 2593 c7 -3 16 -2 19 1 4 3 -2 6 -13 5 -11 0 -14 -3 -6 -6z"/>
<path d="M2468 2543 c5 -76 10 -83 11 -15 0 34 -2 62 -7 62 -4 0 -6 -21 -4
-47z"/>
<path d="M2398 2473 c7 -3 16 -2 19 1 4 3 -2 6 -13 5 -11 0 -14 -3 -6 -6z"/>
<path d="M2523 2473 c9 -2 23 -2 30 0 6 3 -1 5 -18 5 -16 0 -22 -2 -12 -5z"/>
<path d="M2410 2456 c0 -2 15 -6 34 -8 19 -2 32 0 30 4 -5 8 -64 12 -64 4z"/>
<path d="M2513 2453 c9 -2 23 -2 30 0 6 3 -1 5 -18 5 -16 0 -22 -2 -12 -5z"/>
<path d="M1907 2426 c-21 -8 -41 -17 -44 -19 -9 -9 16 -70 41 -101 l24 -29 49
23 c30 15 73 25 116 28 58 4 83 -1 185 -34 106 -35 127 -39 217 -38 86 1 116
6 213 37 142 46 217 49 307 12 69 -29 70 -28 107 54 22 49 20 53 -42 71 -86
25 -155 10 -343 -73 l-142 -62 -110 0 -110 0 -149 69 c-127 59 -159 69 -215
73 -41 2 -80 -2 -104 -11z"/>
<path d="M2065 2293 c-11 -3 -41 -14 -67 -25 -47 -20 -47 -20 -33 -48 8 -16
26 -37 41 -49 l25 -20 64 34 c84 44 131 50 234 31 106 -20 222 -20 329 0 104
19 151 13 239 -31 l67 -34 38 39 c21 21 38 43 38 49 0 21 -84 54 -150 59 -52
3 -90 -3 -190 -29 -170 -45 -268 -45 -434 -1 -112 30 -156 36 -201 25z"/>
<path d="M2739 2182 c-70 -46 -100 -90 -74 -112 13 -11 40 -2 138 48 4 2 7 -1
7 -8 0 -17 -101 -60 -142 -60 -36 0 -37 1 -44 45 -9 65 -33 60 -26 -5 4 -41 2
-50 -11 -50 -11 0 -18 13 -22 38 -11 65 -15 71 -53 82 -52 14 -69 13 -54 -2 7
-7 12 -36 12 -66 0 -46 -3 -53 -17 -50 -15 3 -17 12 -15 48 2 39 1 43 -11 30
-8 -8 -19 -42 -26 -75 -12 -65 -25 -85 -42 -68 -8 8 -6 27 6 70 21 74 17 132
-5 66 -9 -30 -19 -43 -32 -43 -22 0 -22 -1 -3 43 8 20 15 41 15 46 0 11 -59
45 -65 39 -2 -2 -13 -25 -24 -51 -11 -26 -23 -47 -25 -47 -3 0 -21 14 -40 30
-20 18 -37 26 -41 20 -3 -5 -25 -10 -48 -10 l-42 -1 43 -39 c38 -34 127 -80
136 -69 1 2 14 34 27 71 18 50 28 65 38 59 11 -7 8 -21 -12 -72 l-26 -64 29
-14 c24 -12 30 -21 30 -45 0 -42 13 -58 41 -54 15 2 29 15 39 35 13 29 19 33
58 33 l42 0 0 80 c0 75 9 97 26 68 4 -7 10 -42 13 -78 l6 -65 40 2 c121 4 271
61 330 124 l30 32 -27 -7 c-15 -3 -45 0 -68 8 -39 13 -41 13 -76 -15 -38 -30
-72 -45 -81 -35 -10 10 28 45 63 58 25 9 34 18 34 35 0 13 -1 23 -3 23 -2 0
-23 -13 -48 -28z"/>
<path d="M2192 2178 c6 -18 25 -20 31 -3 5 10 0 15 -14 15 -12 0 -19 -5 -17
-12z"/>
<path d="M2590 2171 c0 -6 5 -13 10 -16 6 -3 10 1 10 9 0 9 -4 16 -10 16 -5 0
-10 -4 -10 -9z"/>
<path d="M2650 2169 c0 -5 5 -7 10 -4 6 3 10 8 10 11 0 2 -4 4 -10 4 -5 0 -10
-5 -10 -11z"/>
<path d="M3858 2983 c-19 -5 -24 -28 -8 -38 14 -9 50 13 50 30 0 15 -10 17
-42 8z"/>
<path d="M2080 1213 c-16 -20 -20 -38 -18 -72 3 -42 6 -46 30 -49 22 -3 30 3
43 29 43 83 -2 159 -55 92z"/>
<path d="M2830 1153 c0 -13 5 -23 10 -23 13 0 13 11 0 30 -8 12 -10 11 -10 -7z"/>
<path d="M2298 1170 c-4 -24 -1 -30 14 -30 15 0 19 6 16 27 -4 37 -25 40 -30
3z"/>
<path d="M2620 1173 c0 -10 5 -25 10 -33 12 -19 33 0 28 26 -4 25 -38 31 -38
7z"/>
</g>
</svg>
