<svg xmlns="http://www.w3.org/2000/svg" xmlns:xlink="http://www.w3.org/1999/xlink" width="3000" zoomAndPan="magnify" viewBox="0 0 2250 749.999995" height="1000" preserveAspectRatio="xMidYMid meet" version="1.0"><defs><g/><clipPath id="68d6721cfb"><path d="M 537.171875 246.574219 L 837.960938 246.574219 L 837.960938 547.363281 L 537.171875 547.363281 Z M 537.171875 246.574219 " clip-rule="nonzero"/></clipPath><clipPath id="ca1b9757f9"><path d="M 494 202.636719 L 815.828125 202.636719 L 815.828125 524.464844 L 494 524.464844 Z M 494 202.636719 " clip-rule="nonzero"/></clipPath><clipPath id="18dff7e0bb"><path d="M 497.996094 206.632812 L 804.253906 206.632812 L 804.253906 512.890625 L 497.996094 512.890625 Z M 497.996094 206.632812 " clip-rule="nonzero"/></clipPath></defs><g clip-path="url(#68d6721cfb)"><path fill="#000000" d="M 537.171875 246.574219 L 837.960938 246.574219 L 837.960938 547.363281 L 537.171875 547.363281 Z M 537.171875 246.574219 " fill-opacity="1" fill-rule="nonzero"/></g><g clip-path="url(#ca1b9757f9)"><path fill="#ffffff" d="M 494 202.636719 L 815.828125 202.636719 L 815.828125 524.464844 L 494 524.464844 Z M 494 202.636719 " fill-opacity="1" fill-rule="nonzero"/></g><g clip-path="url(#18dff7e0bb)"><path fill="#000000" d="M 497.996094 206.632812 L 804.253906 206.632812 L 804.253906 512.890625 L 497.996094 512.890625 Z M 497.996094 206.632812 " fill-opacity="1" fill-rule="nonzero"/></g><g fill="#ffffff" fill-opacity="1"><g transform="translate(524.098908, 434.666089)"><g><path d="M 84.125 0 L 37.96875 -56.515625 L 37.96875 0 L 12.53125 0 L 12.53125 -126.828125 L 37.96875 -126.828125 L 37.96875 -69.953125 L 84.125 -126.828125 L 114.84375 -126.828125 L 62.5 -63.953125 L 116.296875 0 Z M 84.125 0 "/></g></g></g><g fill="#ffffff" fill-opacity="1"><g transform="translate(644.550194, 434.666089)"><g><path d="M 121.015625 0 L 95.578125 0 L 37.96875 -87.03125 L 37.96875 0 L 12.53125 0 L 12.53125 -127.015625 L 37.96875 -127.015625 L 95.578125 -39.796875 L 95.578125 -127.015625 L 121.015625 -127.015625 Z M 121.015625 0 "/></g></g></g><g fill="#000000" fill-opacity="1"><g transform="translate(865.747526, 396.807308)"><g><path d="M 20.640625 0 L 20.640625 -136.578125 L 36.71875 -136.578125 L 36.71875 -76.890625 L 39.609375 -76.890625 L 95.671875 -136.578125 L 113.234375 -136.578125 L 113.234375 -134.25 L 54.09375 -70.4375 L 117.90625 -2.328125 L 117.90625 0 L 99.5 0 L 39.609375 -62.875 L 36.71875 -62.875 L 36.71875 0 Z M 20.640625 0 "/></g></g></g><g fill="#000000" fill-opacity="1"><g transform="translate(986.223812, 396.807308)"><g><path d="M 59.140625 1.96875 C 49.421875 1.96875 40.960938 -0.0859375 33.765625 -4.203125 C 26.578125 -8.316406 21.035156 -14.375 17.140625 -22.375 C 13.242188 -30.375 11.296875 -40.070312 11.296875 -51.46875 C 11.296875 -62.875 13.242188 -72.59375 17.140625 -80.625 C 21.035156 -88.65625 26.578125 -94.722656 33.765625 -98.828125 C 40.960938 -102.941406 49.421875 -105 59.140625 -105 C 68.847656 -105 77.300781 -102.941406 84.5 -98.828125 C 91.695312 -94.722656 97.238281 -88.65625 101.125 -80.625 C 105.019531 -72.59375 106.96875 -62.875 106.96875 -51.46875 C 106.96875 -40.070312 105.019531 -30.375 101.125 -22.375 C 97.238281 -14.375 91.695312 -8.316406 84.5 -4.203125 C 77.300781 -0.0859375 68.847656 1.96875 59.140625 1.96875 Z M 59.140625 -11.671875 C 69.410156 -11.671875 77.269531 -14.910156 82.71875 -21.390625 C 88.175781 -27.867188 90.90625 -37.894531 90.90625 -51.46875 C 90.90625 -65.113281 88.175781 -75.171875 82.71875 -81.640625 C 77.269531 -88.117188 69.410156 -91.359375 59.140625 -91.359375 C 48.859375 -91.359375 40.976562 -88.101562 35.5 -81.59375 C 30.019531 -75.09375 27.28125 -65.050781 27.28125 -51.46875 C 27.28125 -37.894531 30.019531 -27.867188 35.5 -21.390625 C 40.976562 -14.910156 48.859375 -11.671875 59.140625 -11.671875 Z M 59.140625 -11.671875 "/></g></g></g><g fill="#000000" fill-opacity="1"><g transform="translate(1104.458678, 396.807308)"><g><path d="M 17.9375 41.765625 L 17.9375 -103.046875 L 33.171875 -103.046875 L 33.171875 -87.625 L 35.125 -87.25 C 42.789062 -99.082031 54.035156 -105 68.859375 -105 C 77.453125 -105 84.953125 -103.035156 91.359375 -99.109375 C 97.773438 -95.191406 102.757812 -89.226562 106.3125 -81.21875 C 109.863281 -73.21875 111.640625 -63.300781 111.640625 -51.46875 C 111.640625 -39.695312 109.769531 -29.828125 106.03125 -21.859375 C 102.289062 -13.890625 97.117188 -7.925781 90.515625 -3.96875 C 83.921875 -0.0078125 76.328125 1.96875 67.734375 1.96875 C 60.753906 1.96875 54.554688 0.753906 49.140625 -1.671875 C 43.722656 -4.109375 39.050781 -8.097656 35.125 -13.640625 L 33.171875 -13.265625 L 33.171875 41.765625 Z M 64.375 -11.671875 C 85.238281 -11.671875 95.671875 -24.9375 95.671875 -51.46875 C 95.671875 -78.0625 85.238281 -91.359375 64.375 -91.359375 C 58.269531 -91.359375 52.878906 -89.957031 48.203125 -87.15625 C 43.535156 -84.351562 39.863281 -79.976562 37.1875 -74.03125 C 34.507812 -68.082031 33.171875 -60.5625 33.171875 -51.46875 C 33.171875 -42.4375 34.507812 -34.945312 37.1875 -29 C 39.863281 -23.050781 43.535156 -18.675781 48.203125 -15.875 C 52.878906 -13.070312 58.269531 -11.671875 64.375 -11.671875 Z M 64.375 -11.671875 "/></g></g></g><g fill="#000000" fill-opacity="1"><g transform="translate(1227.363164, 396.807308)"><g><path d="M 98.1875 -48.015625 L 27.375 -48.015625 C 27.8125 -35.492188 30.816406 -26.304688 36.390625 -20.453125 C 41.960938 -14.597656 49.609375 -11.671875 59.328125 -11.671875 C 66.671875 -11.671875 72.582031 -12.976562 77.0625 -15.59375 C 81.550781 -18.21875 85.070312 -22.332031 87.625 -27.9375 L 89.59375 -27.9375 L 99.5 -22.046875 C 96.507812 -14.578125 91.726562 -8.707031 85.15625 -4.4375 C 78.582031 -0.164062 69.972656 1.96875 59.328125 1.96875 C 49.359375 1.96875 40.789062 0.00390625 33.625 -3.921875 C 26.46875 -7.847656 20.957031 -13.796875 17.09375 -21.765625 C 13.226562 -29.734375 11.296875 -39.632812 11.296875 -51.46875 C 11.296875 -63.175781 13.335938 -73.046875 17.421875 -81.078125 C 21.503906 -89.117188 27.078125 -95.113281 34.140625 -99.0625 C 41.210938 -103.019531 49.296875 -105 58.390625 -105 C 71.585938 -105 81.890625 -101.273438 89.296875 -93.828125 C 96.710938 -86.390625 100.453125 -75.351562 100.515625 -60.71875 C 100.515625 -54.988281 100.390625 -51.128906 100.140625 -49.140625 Z M 85.484375 -60.71875 C 85.234375 -71.6875 82.800781 -79.660156 78.1875 -84.640625 C 73.582031 -89.617188 66.984375 -92.109375 58.390625 -92.109375 C 49.359375 -92.109375 42.269531 -89.601562 37.125 -84.59375 C 31.988281 -79.582031 28.863281 -71.625 27.75 -60.71875 Z M 85.484375 -60.71875 "/></g></g></g><g fill="#000000" fill-opacity="1"><g transform="translate(1337.192706, 396.807308)"><g><path d="M 17.9375 0 L 17.9375 -103.046875 L 32.421875 -103.046875 L 32.421875 -86.875 L 34.375 -86.421875 C 39.175781 -98.128906 48.207031 -103.984375 61.46875 -103.984375 C 68.507812 -103.984375 73.773438 -102.703125 77.265625 -100.140625 L 73.34375 -87.25 L 71.46875 -86.875 C 67.601562 -88.8125 63.367188 -89.78125 58.765625 -89.78125 C 50.546875 -89.78125 44.222656 -86.695312 39.796875 -80.53125 C 35.378906 -74.363281 33.171875 -64.367188 33.171875 -50.546875 L 33.171875 0 Z M 17.9375 0 "/></g></g></g><g fill="#000000" fill-opacity="1"><g transform="translate(1416.763088, 396.807308)"><g><path d="M 42.5 1.96875 C 32.351562 1.96875 24.429688 -0.675781 18.734375 -5.96875 C 13.035156 -11.269531 10.1875 -18.84375 10.1875 -28.6875 C 10.1875 -34.78125 11.445312 -39.929688 13.96875 -44.140625 C 16.488281 -48.347656 20.394531 -51.773438 25.6875 -54.421875 C 30.976562 -57.066406 37.894531 -59.101562 46.4375 -60.53125 C 53.90625 -61.78125 59.582031 -63.179688 63.46875 -64.734375 C 67.363281 -66.296875 69.984375 -68.039062 71.328125 -69.96875 C 72.671875 -71.90625 73.34375 -74.335938 73.34375 -77.265625 C 73.34375 -81.929688 71.738281 -85.507812 68.53125 -88 C 65.320312 -90.488281 60.164062 -91.734375 53.0625 -91.734375 C 46.394531 -91.734375 40.679688 -90.441406 35.921875 -87.859375 C 31.160156 -85.273438 26.785156 -81.429688 22.796875 -76.328125 L 20.921875 -76.328125 L 13.453125 -86.875 C 17.816406 -92.425781 23.359375 -96.832031 30.078125 -100.09375 C 36.804688 -103.363281 44.46875 -105 53.0625 -105 C 65.207031 -105 74.160156 -102.335938 79.921875 -97.015625 C 85.679688 -91.691406 88.5625 -84.328125 88.5625 -74.921875 L 88.5625 -20.265625 C 88.5625 -14.535156 90.988281 -11.671875 95.84375 -11.671875 C 97.46875 -11.671875 99.023438 -11.953125 100.515625 -12.515625 L 101.828125 -12.140625 L 103.609375 -1.59375 C 102.484375 -0.84375 101 -0.265625 99.15625 0.140625 C 97.320312 0.546875 95.441406 0.75 93.515625 0.75 C 87.847656 0.75 83.566406 -0.492188 80.671875 -2.984375 C 77.773438 -5.472656 75.921875 -9.148438 75.109375 -14.015625 L 73.15625 -14.203125 C 70.226562 -8.785156 66.269531 -4.734375 61.28125 -2.046875 C 56.300781 0.628906 50.039062 1.96875 42.5 1.96875 Z M 45.875 -10.1875 C 51.601562 -10.1875 56.566406 -11.507812 60.765625 -14.15625 C 64.972656 -16.800781 68.195312 -20.519531 70.4375 -25.3125 C 72.675781 -30.113281 73.796875 -35.660156 73.796875 -41.953125 L 73.796875 -55.03125 L 72.03125 -55.40625 C 69.726562 -53.78125 66.925781 -52.421875 63.625 -51.328125 C 60.320312 -50.242188 55.710938 -49.265625 49.796875 -48.390625 C 43.816406 -47.578125 39.066406 -46.332031 35.546875 -44.65625 C 32.023438 -42.976562 29.515625 -40.84375 28.015625 -38.25 C 26.523438 -35.664062 25.78125 -32.476562 25.78125 -28.6875 C 25.78125 -22.644531 27.554688 -18.050781 31.109375 -14.90625 C 34.660156 -11.757812 39.582031 -10.1875 45.875 -10.1875 Z M 45.875 -10.1875 "/></g></g></g><g fill="#000000" fill-opacity="1"><g transform="translate(1523.32393, 396.807308)"><g><path d="M 46.984375 1.96875 C 40.515625 1.96875 34.519531 1.113281 29 -0.59375 C 23.488281 -2.3125 18.832031 -4.664062 15.03125 -7.65625 C 11.238281 -10.644531 8.5625 -14.007812 7 -17.75 L 15.96875 -27.09375 L 17.9375 -27.09375 C 21.300781 -21.988281 25.347656 -18.140625 30.078125 -15.546875 C 34.816406 -12.960938 40.453125 -11.671875 46.984375 -11.671875 C 54.585938 -11.671875 60.363281 -13.148438 64.3125 -16.109375 C 68.269531 -19.066406 70.25 -23.195312 70.25 -28.5 C 70.25 -32.539062 69.050781 -35.882812 66.65625 -38.53125 C 64.257812 -41.175781 60.382812 -43.15625 55.03125 -44.46875 L 37.65625 -48.765625 C 28.375 -51.003906 21.597656 -54.550781 17.328125 -59.40625 C 13.066406 -64.269531 10.9375 -70.285156 10.9375 -77.453125 C 10.9375 -83.054688 12.367188 -87.925781 15.234375 -92.0625 C 18.097656 -96.207031 22.222656 -99.398438 27.609375 -101.640625 C 32.992188 -103.878906 39.390625 -105 46.796875 -105 C 56.265625 -105 63.722656 -103.675781 69.171875 -101.03125 C 74.628906 -98.382812 78.882812 -94.695312 81.9375 -89.96875 L 73.34375 -81.5625 L 71.46875 -81.5625 C 68.164062 -85.351562 64.566406 -88.085938 60.671875 -89.765625 C 56.785156 -91.453125 52.160156 -92.296875 46.796875 -92.296875 C 40.015625 -92.296875 34.816406 -91.082031 31.203125 -88.65625 C 27.585938 -86.226562 25.78125 -82.707031 25.78125 -78.09375 C 25.78125 -73.925781 27.054688 -70.566406 29.609375 -68.015625 C 32.160156 -65.460938 36.613281 -63.40625 42.96875 -61.84375 L 60.0625 -57.734375 C 69.03125 -55.617188 75.507812 -52.097656 79.5 -47.171875 C 83.488281 -42.253906 85.484375 -36.09375 85.484375 -28.6875 C 85.484375 -22.644531 84.050781 -17.316406 81.1875 -12.703125 C 78.320312 -8.097656 73.992188 -4.5 68.203125 -1.90625 C 62.410156 0.675781 55.335938 1.96875 46.984375 1.96875 Z M 46.984375 1.96875 "/></g></g></g><g fill="#000000" fill-opacity="1"><g transform="translate(1618.584246, 396.807308)"><g><path d="M 25.59375 -122.9375 C 22.351562 -122.9375 19.722656 -123.945312 17.703125 -125.96875 C 15.679688 -128 14.671875 -130.570312 14.671875 -133.6875 C 14.671875 -136.800781 15.679688 -139.367188 17.703125 -141.390625 C 19.722656 -143.421875 22.351562 -144.4375 25.59375 -144.4375 C 28.832031 -144.4375 31.460938 -143.421875 33.484375 -141.390625 C 35.515625 -139.367188 36.53125 -136.800781 36.53125 -133.6875 C 36.53125 -130.570312 35.515625 -128 33.484375 -125.96875 C 31.460938 -123.945312 28.832031 -122.9375 25.59375 -122.9375 Z M 17.9375 0 L 17.9375 -103.046875 L 33.171875 -103.046875 L 33.171875 0 Z M 17.9375 0 "/></g></g></g><g fill="#000000" fill-opacity="1"><g transform="translate(882.432397, 506.164454)"><g><path d="M 13.25 0 L 7.53125 0 L 7.53125 -49.828125 L 14.71875 -49.828125 L 39.015625 -11.75 L 39.875 -11.890625 L 39.875 -49.828125 L 45.5625 -49.828125 L 45.5625 0 L 39.4375 0 L 14.109375 -40.71875 L 13.25 -40.59375 Z M 13.25 0 "/></g></g></g><g fill="#000000" fill-opacity="1"><g transform="translate(959.414964, 506.164454)"><g><path d="M 25.703125 0.71875 C 19.585938 0.71875 14.960938 -0.832031 11.828125 -3.9375 C 8.691406 -7.039062 7.125 -11.632812 7.125 -17.71875 L 7.125 -49.828125 L 12.953125 -49.828125 L 12.953125 -17.796875 C 12.953125 -13.429688 14 -10.15625 16.09375 -7.96875 C 18.195312 -5.789062 21.398438 -4.703125 25.703125 -4.703125 C 34.191406 -4.703125 38.4375 -9.066406 38.4375 -17.796875 L 38.4375 -49.828125 L 44.265625 -49.828125 L 44.265625 -17.71875 C 44.265625 -11.632812 42.695312 -7.039062 39.5625 -3.9375 C 36.425781 -0.832031 31.804688 0.71875 25.703125 0.71875 Z M 25.703125 0.71875 "/></g></g></g><g fill="#000000" fill-opacity="1"><g transform="translate(1034.626149, 506.164454)"><g><path d="M 7.53125 0 L 7.53125 -49.828125 L 25.625 -49.828125 C 28.96875 -49.828125 31.773438 -49.273438 34.046875 -48.171875 C 36.316406 -47.066406 38.019531 -45.507812 39.15625 -43.5 C 40.289062 -41.488281 40.859375 -39.109375 40.859375 -36.359375 C 40.859375 -33.273438 40.085938 -30.726562 38.546875 -28.71875 C 37.003906 -26.707031 34.59375 -25.203125 31.3125 -24.203125 L 31.3125 -23.484375 C 32.925781 -22.847656 34.242188 -21.847656 35.265625 -20.484375 C 36.296875 -19.117188 37.242188 -17.082031 38.109375 -14.375 L 42.703125 0 L 36.671875 0 L 31.6875 -15.234375 C 31.101562 -17.023438 30.421875 -18.429688 29.640625 -19.453125 C 28.867188 -20.484375 27.894531 -21.222656 26.71875 -21.671875 C 25.539062 -22.128906 24.039062 -22.359375 22.21875 -22.359375 L 13.390625 -22.359375 L 13.390625 0 Z M 25.5 -27.328125 C 28.601562 -27.328125 30.914062 -28.046875 32.4375 -29.484375 C 33.96875 -30.929688 34.734375 -33.132812 34.734375 -36.09375 C 34.734375 -39.039062 33.96875 -41.234375 32.4375 -42.671875 C 30.914062 -44.117188 28.601562 -44.84375 25.5 -44.84375 L 13.390625 -44.84375 L 13.390625 -27.328125 Z M 25.5 -27.328125 "/></g></g></g><g fill="#000000" fill-opacity="1"><g transform="translate(1104.625348, 506.164454)"><g><path d="M 13.390625 0 L 7.53125 0 L 7.53125 -49.828125 L 13.390625 -49.828125 Z M 13.390625 0 "/></g></g></g><g fill="#000000" fill-opacity="1"><g transform="translate(1149.450508, 506.164454)"><g><path d="M 21.78125 0.71875 C 18.644531 0.71875 15.832031 0.289062 13.34375 -0.5625 C 10.851562 -1.414062 8.78125 -2.535156 7.125 -3.921875 C 5.46875 -5.304688 4.226562 -6.828125 3.40625 -8.484375 L 6.609375 -12.375 L 7.46875 -12.375 C 10.550781 -7.164062 15.320312 -4.5625 21.78125 -4.5625 C 25.53125 -4.5625 28.316406 -5.34375 30.140625 -6.90625 C 31.972656 -8.476562 32.890625 -10.664062 32.890625 -13.46875 C 32.890625 -15.101562 32.585938 -16.488281 31.984375 -17.625 C 31.378906 -18.757812 30.382812 -19.726562 29 -20.53125 C 27.613281 -21.34375 25.726562 -22.039062 23.34375 -22.625 L 17.515625 -24.0625 C 13.179688 -25.101562 9.984375 -26.765625 7.921875 -29.046875 C 5.867188 -31.335938 4.84375 -34.234375 4.84375 -37.734375 C 4.84375 -40.203125 5.476562 -42.40625 6.75 -44.34375 C 8.019531 -46.289062 9.878906 -47.8125 12.328125 -48.90625 C 14.785156 -50 17.71875 -50.546875 21.125 -50.546875 C 24.875 -50.546875 28.035156 -50.015625 30.609375 -48.953125 C 33.191406 -47.898438 35.257812 -46.316406 36.8125 -44.203125 L 33.9375 -40.34375 L 33.09375 -40.34375 C 31.65625 -42.09375 29.957031 -43.375 28 -44.1875 C 26.050781 -45.007812 23.757812 -45.421875 21.125 -45.421875 C 17.675781 -45.421875 15.070312 -44.75 13.3125 -43.40625 C 11.550781 -42.070312 10.671875 -40.222656 10.671875 -37.859375 C 10.671875 -35.609375 11.316406 -33.816406 12.609375 -32.484375 C 13.898438 -31.160156 16.082031 -30.132812 19.15625 -29.40625 L 25.125 -27.984375 C 29.957031 -26.847656 33.457031 -25.101562 35.625 -22.75 C 37.800781 -20.394531 38.890625 -17.390625 38.890625 -13.734375 C 38.890625 -10.921875 38.257812 -8.425781 37 -6.25 C 35.738281 -4.082031 33.820312 -2.378906 31.25 -1.140625 C 28.6875 0.0976562 25.53125 0.71875 21.78125 0.71875 Z M 21.78125 0.71875 "/></g></g></g></svg>